# xmcd
#
# Track frame offsets:
#	150
#	2094
#	21927
#	52238
#	53036
#	70123
#	74144
#	95931
#	117271
#	133664
#	156926
#	180999
#	185637
#	208160
#	227270
#	248888
#	273059
#	296991
#
# Disc length: 4337 seconds
#
# Revision: 0
# Processed by: cddbd v1.4PL0 Copyright (c) Steve Scherf et al.
# Submitted via: dBpowerAMP V4.0
#
DISCID=1310ef12
DTITLE=Eminem - Marshall Mathers LP
DYEAR=1900
DGENRE=Hip-Hop
TTITLE0=Public Service Announcement 2000
TTITLE1=Kill You
TTITLE2=Stan
TTITLE3=Paul
TTITLE4=Who Knew
TTITLE5=Steve Berman
TTITLE6=The Way I am
TTITLE7=The Real Slim Shady
TTITLE8=Remember Me
TTITLE9=I'm Back
TTITLE10=Marshall Mathers
TTITLE11=Ken Kaniff
TTITLE12=Drug Ballad
TTITLE13=Amityville
TTITLE14=Bitch Please II (feat Dr Dre, Snoop Dogg, Xzibit, Nate Dogg)
TTITLE15=Kim
TTITLE16=Under The Influence
TTITLE17=Criminal
EXTD=
EXTT0=
EXTT1=
EXTT2=
EXTT3=
EXTT4=
EXTT5=
EXTT6=
EXTT7=
EXTT8=
EXTT9=
EXTT10=
EXTT11=
EXTT12=
EXTT13=
EXTT14=
EXTT15=
EXTT16=
EXTT17=
PLAYORDER=
